<?xml version="1.0" encoding="UTF-8"?>
<svg version="1.1" xmlns="http://www.w3.org/2000/svg" width="485" height="125">
<path d="M0 0 C7.92 0 15.84 0 24 0 C25.6044114 3.20882281 25.6088529 6.75853914 25.97265625 10.2890625 C26.06002548 11.10748627 26.14739471 11.92591003 26.2374115 12.76913452 C26.51607281 15.38738615 26.78934534 18.00616871 27.0625 20.625 C27.25029684 22.39847504 27.43844345 24.17191309 27.62695312 25.9453125 C28.08869767 30.29645578 28.54560958 34.64808283 29 39 C32.7341957 34.26997541 36.41436558 29.56611014 39.6875 24.5 C43.17157717 19.19844163 46.77749183 13.99412118 50.4375 8.8125 C51.23643677 7.67941406 51.23643677 7.67941406 52.05151367 6.5234375 C55.86862148 1.13137852 55.86862148 1.13137852 57 0 C58.70772358 -0.08713831 60.41898649 -0.10700007 62.12890625 -0.09765625 C63.68061523 -0.09282227 63.68061523 -0.09282227 65.26367188 -0.08789062 C66.35228516 -0.07951172 67.44089844 -0.07113281 68.5625 -0.0625 C70.2012207 -0.05573242 70.2012207 -0.05573242 71.87304688 -0.04882812 C74.58208495 -0.03699826 77.29101599 -0.02051543 80 0 C80 0.66 80 1.32 80 2 C78.906875 2.391875 77.81375 2.78375 76.6875 3.1875 C72.88771895 4.54968566 71.83614091 6.44833639 70 10 C68.88087114 13.18785507 67.97972894 16.42739226 67.08203125 19.68359375 C66.68886971 21.08328148 66.68886971 21.08328148 66.2877655 22.51124573 C65.73708093 24.47953658 65.19014562 26.44887977 64.64672852 28.41918945 C63.81550566 31.42662527 62.96816738 34.42918892 62.11914062 37.43164062 C61.58496075 39.34868643 61.05172584 41.26599585 60.51953125 43.18359375 C60.26645706 44.07751328 60.01338287 44.9714328 59.75263977 45.8924408 C58.52775052 50.37781623 57.68996131 54.30135156 58 59 C59.65 59.66 61.3 60.32 63 61 C63 61.66 63 62.32 63 63 C52.11 63 41.22 63 30 63 C30 62.34 30 61.68 30 61 C30.54269531 60.82984375 31.08539063 60.6596875 31.64453125 60.484375 C32.35996094 60.24203125 33.07539063 59.9996875 33.8125 59.75 C34.87404297 59.40195313 34.87404297 59.40195313 35.95703125 59.046875 C39.83432655 57.06003917 40.89705587 54.30745448 42.25854492 50.24121094 C42.67486104 48.74140369 43.08166453 47.23893344 43.48046875 45.734375 C43.69818436 44.94097717 43.91589996 44.14757935 44.14021301 43.33013916 C44.83093477 40.80560034 45.50935907 38.277944 46.1875 35.75 C46.65479055 34.03363387 47.12288057 32.31748518 47.59179688 30.6015625 C48.73714297 26.40350471 49.87147467 22.20260933 51 18 C50.04226685 19.44475708 50.04226685 19.44475708 49.06518555 20.91870117 C44.06703375 28.44559915 39.02071622 35.92862286 33.8125 43.3125 C33.24853516 44.11494141 32.68457031 44.91738281 32.10351562 45.74414062 C30.97759317 47.34616743 29.84763912 48.9453695 28.71337891 50.54150391 C27.49888472 52.28415943 26.31667948 54.04952091 25.15771484 55.82958984 C24.55266113 56.74562988 23.94760742 57.66166992 23.32421875 58.60546875 C22.78240967 59.4461792 22.24060059 60.28688965 21.68237305 61.15307617 C21.12718994 61.76256104 20.57200684 62.3720459 20 63 C18.68 63 17.36 63 16 63 C15.85377197 61.73816895 15.70754395 60.47633789 15.55688477 59.17626953 C15.01461517 54.50557487 14.46741363 49.83546912 13.91870117 45.16552734 C13.68167172 43.14224782 13.44598952 41.11880999 13.21166992 39.09521484 C12.87510542 36.19065604 12.53373838 33.28669645 12.19140625 30.3828125 C12.08719864 29.47443634 11.98299103 28.56606018 11.87562561 27.63015747 C11.77559738 26.78943695 11.67556915 25.94871643 11.57250977 25.08251953 C11.48590591 24.34083527 11.39930206 23.599151 11.31007385 22.83499146 C11.07661687 20.90995361 11.07661687 20.90995361 10 19 C8.54306394 23.88882989 7.10106558 28.78172837 5.67260742 33.67895508 C5.18480857 35.34356259 4.69298163 37.00699529 4.19702148 38.66918945 C3.48394062 41.06162223 2.78555565 43.45793585 2.08984375 45.85546875 C1.86594467 46.5952446 1.64204559 47.33502045 1.41136169 48.09721375 C0.28751505 52.02707447 -0.48745189 55.10066255 1 59 C3.47636012 60.37466625 3.47636012 60.37466625 6 61 C6 61.66 6 62.32 6 63 C-1.26 63 -8.52 63 -16 63 C-15.67 62.01 -15.34 61.02 -15 60 C-14.071875 59.79375 -13.14375 59.5875 -12.1875 59.375 C-7.9494233 57.54681005 -7.67095436 55.65730276 -5.96841431 51.55679321 C-4.43952065 47.52023067 -3.1602386 43.43467108 -1.94921875 39.29296875 C-1.68615433 38.40515213 -1.4230899 37.51733551 -1.15205383 36.60261536 C-0.60362172 34.74391198 -0.05842342 32.88425157 0.48364258 31.02368164 C1.31637708 28.17423343 2.16645677 25.33033094 3.01757812 22.48632812 C3.55053538 20.67218496 4.08247316 18.85774191 4.61328125 17.04296875 C4.86837967 16.19502243 5.12347809 15.34707611 5.38630676 14.47343445 C5.61372055 13.68193497 5.84113434 12.89043549 6.07543945 12.07495117 C6.38044121 11.03645271 6.38044121 11.03645271 6.69160461 9.97697449 C7.05726016 7.63293266 6.90177619 6.19481366 6 4 C3.00384054 2.6954344 3.00384054 2.6954344 0 2 C0 1.34 0 0.68 0 0 Z " fill="#E6E6E6" transform="translate(333,32)"/>
<path d="M0 0 C-0.33 2.64 -0.66 5.28 -1 8 C-0.38125 7.05125 0.2375 6.1025 0.875 5.125 C3 2 3 2 5 0 C8.5 -0.25 8.5 -0.25 12 0 C12.66 0.66 13.32 1.32 14 2 C16.34484656 1.76072994 18.67810464 1.4054103 21 1 C22.64455607 0.80160911 24.29046715 0.61415337 25.9375 0.4375 C27.09572266 0.31181641 27.09572266 0.31181641 28.27734375 0.18359375 C29.13005859 0.09271484 29.13005859 0.09271484 30 0 C32.4078632 4.31301712 33.47658636 7.80456317 33.94921875 12.7109375 C34.07490234 13.95488281 34.20058594 15.19882813 34.33007812 16.48046875 C34.50700195 18.40826172 34.50700195 18.40826172 34.6875 20.375 C34.81705078 21.68339844 34.94660156 22.99179688 35.08007812 24.33984375 C35.39729636 27.55902135 35.70355797 30.7788539 36 34 C37.4952292 31.8221005 38.97066712 29.63441055 40.4375 27.4375 C40.85837891 26.82841797 41.27925781 26.21933594 41.71289062 25.59179688 C44.45036706 21.4527325 45.9064389 18.10219889 46 13 C44.3540349 11.31288577 42.68762851 9.6454378 41 8 C41.0736216 4.24529849 41.32841161 2.67158839 44 0 C49.68348624 -0.5412844 49.68348624 -0.5412844 52 0 C53.92543532 1.94706943 54.86789489 3.31833761 55.390625 6.015625 C54.2249574 24.53678792 35.00013286 46.75862976 22 59 C17.26934329 63.01277495 13.20063435 64.81202131 6.92578125 64.421875 C5 64 5 64 2.875 62.3125 C1.77514076 59.40572914 2.00134278 57.91915187 3 55 C5 53 5 53 6.875 52.734375 C7.57625 52.73953125 8.2775 52.7446875 9 52.75 C9.70125 52.74484375 10.4025 52.7396875 11.125 52.734375 C13 53 13 53 15 55 C18.09926819 54.67801034 18.09926819 54.67801034 21 54 C21.80571349 29.86440301 21.80571349 29.86440301 19 6 C16.525 5.505 16.525 5.505 14 5 C13.814375 6.6396875 13.814375 6.6396875 13.625 8.3125 C13 12 13 12 11 15 C7.875 15.1875 7.875 15.1875 5 15 C4.67 14.34 4.34 13.68 4 13 C0.74298679 13.71730481 0.74298679 13.71730481 -0.6484375 16.8515625 C-1.23707806 18.10328883 -1.81174641 19.36164656 -2.375 20.625 C-2.67736572 21.28636963 -2.97973145 21.94773926 -3.29125977 22.62915039 C-6.39239474 29.57985708 -8.76244273 36.73051671 -11 44 C-15.29 44 -19.58 44 -24 44 C-22.08909605 35.03419308 -19.73027061 26.19585634 -17.390625 17.33398438 C-17.08382812 16.16287109 -16.77703125 14.99175781 -16.4609375 13.78515625 C-16.18040527 12.72176025 -15.89987305 11.65836426 -15.61083984 10.56274414 C-14.92271381 8.11483959 -14.92271381 8.11483959 -15 6 C-16.65 5.67 -18.3 5.34 -20 5 C-20 4.34 -20 3.68 -20 3 C-13.19925959 1.09579269 -7.08076251 -0.40850553 0 0 Z M-3 9 C-2 11 -2 11 -2 11 Z " fill="#E6E6E6" transform="translate(219,51)"/>
<path d="M0 0 C0.9215538 0.00222061 1.8431076 0.00444122 2.79258728 0.00672913 C3.83359085 0.00680466 4.87459442 0.00688019 5.94714355 0.00695801 C7.07941879 0.01211929 8.21169403 0.01728058 9.37828064 0.02259827 C10.53106003 0.02401321 11.68383942 0.02542816 12.87155151 0.02688599 C16.57043503 0.03250446 20.26925903 0.0450601 23.96812439 0.05775452 C26.46877456 0.06276714 28.96942567 0.06733045 31.47007751 0.07142639 C37.6152829 0.0824799 43.76044354 0.09975692 49.90562439 0.12025452 C48.58562439 5.40025452 47.26562439 10.68025452 45.90562439 16.12025452 C44.58562439 16.45025452 43.26562439 16.78025452 41.90562439 17.12025452 C41.65812439 15.86212952 41.41062439 14.60400452 41.15562439 13.30775452 C40.46032714 10.57485004 40.07407673 9.30675532 38.15562439 7.18275452 C35.42330884 5.8924944 32.89689578 5.46017172 29.90562439 5.12025452 C29.79143158 5.73386337 29.67723877 6.34747223 29.55958557 6.97967529 C28.42128043 12.9040442 27.00006244 18.66528743 25.30406189 24.45228577 C24.80913841 26.17425309 24.31435062 27.89625943 23.81968689 29.61830139 C23.04726401 32.28947388 22.27269361 34.95999684 21.49546814 37.629776 C20.73849351 40.23568018 19.98960205 42.84380527 19.24156189 45.45228577 C18.89005569 46.6461364 18.89005569 46.6461364 18.53144836 47.86410522 C17.43096312 51.71554437 16.60356782 55.06875657 16.90562439 59.12025452 C18.88562439 59.78025452 20.86562439 60.44025452 22.90562439 61.12025452 C22.90562439 61.78025452 22.90562439 62.44025452 22.90562439 63.12025452 C12.01562439 63.12025452 1.12562439 63.12025452 -10.09437561 63.12025452 C-10.09437561 62.46025452 -10.09437561 61.80025452 -10.09437561 61.12025452 C-8.85687561 60.83150452 -7.61937561 60.54275452 -6.34437561 60.24525452 C-3.61073422 59.22012964 -2.39250659 58.63333519 -0.91035461 56.08256531 C-0.61562256 55.27080841 -0.3208905 54.45905151 -0.01722717 53.62269592 C0.31079895 52.7249646 0.63882507 51.82723328 0.97679138 50.90229797 C2.40784619 46.61599824 3.70728844 42.30868737 4.92124939 37.95619202 C5.18194214 37.0381076 5.44263489 36.12002319 5.71122742 35.17411804 C6.53106275 32.28255998 7.3434697 29.38897809 8.15562439 26.49525452 C8.71502715 24.51725042 9.27491869 22.53938449 9.83531189 20.56166077 C11.19772984 15.74943499 12.55349661 10.93538124 13.90562439 6.12025452 C8.44599759 6.77282529 5.21294939 7.57867618 0.90562439 11.12025452 C-0.14625061 12.72900452 -0.14625061 12.72900452 -1.21937561 14.37025452 C-2.14750061 15.73150452 -2.14750061 15.73150452 -3.09437561 17.12025452 C-4.41437561 17.12025452 -5.73437561 17.12025452 -7.09437561 17.12025452 C-6.45278609 14.47332475 -5.80632778 11.82775523 -5.15687561 9.18275452 C-4.97447327 8.42800842 -4.79207092 7.67326233 -4.60414124 6.89564514 C-2.94512858 0.16910291 -2.94512858 0.16910291 0 0 Z " fill="#E6E6E6" transform="translate(114.09437561035156,31.879745483398438)"/>
<path d="M0 0 C0.91007812 0.00902344 1.82015625 0.01804688 2.7578125 0.02734375 C3.80582031 0.04474609 3.80582031 0.04474609 4.875 0.0625 C5.205 1.0525 5.535 2.0425 5.875 3.0625 C6.535 3.0625 7.195 3.0625 7.875 3.0625 C7.875 2.4025 7.875 1.7425 7.875 1.0625 C11.835 1.0625 15.795 1.0625 19.875 1.0625 C18.43192496 8.87551235 16.45078339 16.43132833 14.25 24.0625 C13.60965556 26.2910003 12.97151561 28.52013564 12.3359375 30.75 C12.05540527 31.72324219 11.77487305 32.69648437 11.48583984 33.69921875 C10.79158432 35.97840279 10.79158432 35.97840279 10.875 38.0625 C11.4525 37.4025 12.03 36.7425 12.625 36.0625 C14.875 34.0625 14.875 34.0625 18.875 34.0625 C16.86655908 38.99230953 13.23394926 42.15653383 8.875 45.0625 C6.46484375 45.328125 6.46484375 45.328125 3.8125 45.3125 C2.93464844 45.31765625 2.05679687 45.3228125 1.15234375 45.328125 C-1.125 45.0625 -1.125 45.0625 -3.125 43.0625 C-3.75 40.9375 -3.75 40.9375 -4.125 39.0625 C-4.52589844 39.495625 -4.92679687 39.92875 -5.33984375 40.375 C-8.65866706 43.62609222 -11.0600239 45.51439657 -15.8125 45.6875 C-18.92772559 45.46460481 -19.99807405 45.15134816 -22.625 43.3125 C-25.56350389 38.90474417 -25.72588659 34.26736274 -25.125 29.0625 C-22.29694177 17.18465543 -16.85796555 8.42798745 -7.125 1.0625 C-4.60024538 -0.19987731 -2.81299534 -0.03606404 0 0 Z M0.875 2.0625 C-3.42605978 5.85884358 -5.41794315 9.2746591 -7.375 14.625 C-7.63023437 15.28435547 -7.88546875 15.94371094 -8.1484375 16.62304688 C-10.19097656 21.97127414 -11.25556168 26.09531868 -11.1875 31.8125 C-11.17847656 32.79734375 -11.16945313 33.7821875 -11.16015625 34.796875 C-11.14855469 35.54453125 -11.13695312 36.2921875 -11.125 37.0625 C-8.02887703 36.75865037 -6.55205799 36.55085337 -4.46484375 34.1640625 C0.50031949 25.39550123 6.03605103 15.49784551 3.875 5.0625 C2.44155117 3.28872547 2.44155117 3.28872547 0.875 2.0625 Z " fill="#E6E6E6" transform="translate(299.125,50.9375)"/>
<path d="M0 0 C3.53131314 2.54399917 5.82053525 5.27352639 6.6640625 9.64453125 C7.12483127 18.52624657 3.51415416 27.03774102 -2.015625 33.85546875 C-6.98730693 39.05468761 -12.56497368 43.2444102 -19.87890625 43.94140625 C-20.98234375 43.94527344 -22.08578125 43.94914062 -23.22265625 43.953125 C-24.32609375 43.96988281 -25.42953125 43.98664063 -26.56640625 44.00390625 C-30.07411838 43.60017206 -31.90770787 42.733153 -34.72265625 40.640625 C-38.30738128 35.57256548 -38.37357513 30.6164219 -37.72265625 24.640625 C-35.78706131 14.88200053 -29.73022137 7.3274135 -21.72265625 1.640625 C-15.39337186 -2.08248347 -6.74988057 -3.37009819 0 0 Z M-15.72265625 4.640625 C-21.20209035 13.85528896 -26.38707851 27.82188034 -24.72265625 38.640625 C-22.88077013 40.69332963 -22.88077013 40.69332963 -20.72265625 41.640625 C-11.91375683 36.35528535 -9.78350325 24.44093028 -7.44921875 15.11328125 C-6.59131483 11.01286949 -6.16407198 7.79010815 -6.72265625 3.640625 C-7.99485359 1.61084523 -7.99485359 1.61084523 -9.72265625 0.640625 C-12.33402969 0.640625 -14.01894571 2.97563515 -15.72265625 4.640625 Z " fill="#E6E6E6" transform="translate(185.72265625,52.359375)"/>
<path d="M0 0 C3.01495342 1.91247045 4.59034868 3.98931268 5.8828125 7.24609375 C7.45496681 18.13023899 4.25906181 26.12115683 -2.00390625 34.88671875 C-4.23173355 37.3739788 -6.29196428 38.84098843 -9.1796875 40.49609375 C-10.03691406 40.99625 -10.89414062 41.49640625 -11.77734375 42.01171875 C-15.77442849 44.12036446 -19.02039945 44.46138097 -23.4921875 44.55859375 C-25.17441406 44.61466797 -25.17441406 44.61466797 -26.890625 44.671875 C-30.81779286 44.15364098 -32.35226449 43.03544187 -35.1171875 40.24609375 C-38.51963922 35.32800444 -37.64683885 28.93816967 -37.1171875 23.24609375 C-34.95849755 14.85693339 -29.13478996 6.89522179 -21.8671875 2.24609375 C-15.4858949 -1.42953079 -7.04873035 -2.50997224 0 0 Z M-10.1171875 1.24609375 C-17.98664737 5.26621849 -19.71477721 13.73961328 -22.4296875 21.68359375 C-24.27140165 27.88452648 -24.79452656 33.80582072 -24.1171875 40.24609375 C-23.06844969 41.49556914 -23.06844969 41.49556914 -20.74609375 41.578125 C-18.01153821 41.51964444 -18.01153821 41.51964444 -16.45703125 39.4453125 C-11.06178181 29.78195487 -7.03389976 20.2422079 -6.8671875 9.05859375 C-6.84140625 8.01316406 -6.815625 6.96773437 -6.7890625 5.890625 C-6.89734375 5.01792969 -7.005625 4.14523438 -7.1171875 3.24609375 C-8.1071875 2.58609375 -9.0971875 1.92609375 -10.1171875 1.24609375 Z " fill="#E6E6E6" transform="translate(444.1171875,51.75390625)"/>
<path d="M0 0 C10.56 0 21.12 0 32 0 C32 0.66 32 1.32 32 2 C30.27473958 2.5859375 28.54947917 3.171875 26.82421875 3.7578125 C21.838174 7.1530207 20.65372563 15.03355003 19.08203125 20.5625 C18.81992355 21.47201416 18.55781586 22.38152832 18.2877655 23.31860352 C17.73776472 25.23400768 17.19080807 27.15028829 16.64672852 29.06738281 C15.81441343 31.99327361 14.9673812 34.9146294 14.11914062 37.8359375 C13.58504091 39.70286873 13.05180833 41.5700483 12.51953125 43.4375 C12.26645706 44.30640869 12.01338287 45.17531738 11.75263977 46.07055664 C10.50834773 50.50151785 9.69498649 54.34677064 10 59 C11.98 59.66 13.96 60.32 16 61 C16 61.66 16 62.32 16 63 C5.11 63 -5.78 63 -17 63 C-14 60 -14 60 -11.43457031 59.05761719 C-8.93344385 58.22868248 -8.93344385 58.22868248 -7.83886719 56.29394531 C-4.90140804 48.07557933 -2.41525932 39.72420162 0.00146484 31.33984375 C0.75309739 28.73928338 1.51871136 26.14310314 2.28515625 23.546875 C2.76907952 21.88045504 3.25218167 20.21379636 3.734375 18.546875 C3.96243835 17.77800964 4.19050171 17.00914429 4.42547607 16.21697998 C5.6190065 12.02553488 6.25305773 8.40669499 6 4 C4.02 3.34 2.04 2.68 0 2 C0 1.34 0 0.68 0 0 Z " fill="#E6E6E6" transform="translate(36,32)"/>
<path d="M0 0 C1.53720703 0.00966797 1.53720703 0.00966797 3.10546875 0.01953125 C4.16894531 0.03628906 5.23242188 0.05304687 6.328125 0.0703125 C7.94654297 0.08384766 7.94654297 0.08384766 9.59765625 0.09765625 C12.25790749 0.1211983 14.91804449 0.15706853 17.578125 0.1953125 C16.918125 5.1453125 16.258125 10.0953125 15.578125 15.1953125 C14.258125 15.1953125 12.938125 15.1953125 11.578125 15.1953125 C11.39636719 14.65261719 11.21460937 14.10992187 11.02734375 13.55078125 C10.77597656 12.83535156 10.52460937 12.11992188 10.265625 11.3828125 C9.90017578 10.32126953 9.90017578 10.32126953 9.52734375 9.23828125 C8.49626313 7.01912419 7.44026031 5.76619075 5.578125 4.1953125 C3.57239859 3.38085141 3.57239859 3.38085141 1.578125 3.1953125 C0.588125 3.6903125 0.588125 3.6903125 -0.421875 4.1953125 C-0.57131303 11.06946167 2.82836497 13.95551769 7.40625 18.78125 C10.59366608 22.32409737 12.45820257 25.27720001 12.66015625 30.19140625 C12.31784707 35.08550242 10.76398069 38.38998487 7.578125 42.1953125 C2.75468121 46.3269088 -2.73944601 45.53239806 -8.734375 45.3828125 C-9.76111328 45.36927734 -10.78785156 45.35574219 -11.84570312 45.34179688 C-14.37163409 45.30655133 -16.8964816 45.2572795 -19.421875 45.1953125 C-19.28124365 42.90332073 -19.13421557 40.61172064 -18.984375 38.3203125 C-18.90316406 37.04414062 -18.82195313 35.76796875 -18.73828125 34.453125 C-18.421875 31.1953125 -18.421875 31.1953125 -17.421875 29.1953125 C-16.431875 29.1953125 -15.441875 29.1953125 -14.421875 29.1953125 C-14.16792969 29.81019531 -13.91398437 30.42507812 -13.65234375 31.05859375 C-13.13607422 32.27095703 -13.13607422 32.27095703 -12.609375 33.5078125 C-12.27292969 34.30832031 -11.93648438 35.10882813 -11.58984375 35.93359375 C-10.05261261 38.91037244 -8.50194083 40.6727 -5.484375 42.1328125 C-3.18783076 42.43470959 -3.18783076 42.43470959 -1.171875 40.2578125 C-0.305625 39.236875 -0.305625 39.236875 0.578125 38.1953125 C-0.82636017 32.71193325 -3.45406521 29.2124219 -6.984375 24.9453125 C-13.78697539 16.57820045 -13.78697539 16.57820045 -13.70703125 10.296875 C-13.24036596 6.85761577 -11.64061913 4.78384732 -9.421875 2.1953125 C-6.23468067 0.15775385 -3.74428982 -0.04160322 0 0 Z " fill="#E6E6E6" transform="translate(79.421875,50.8046875)"/>
<path d="M0 0 C0.99 0 1.98 0 3 0 C3.25394531 0.61488281 3.50789063 1.22976562 3.76953125 1.86328125 C4.11371094 2.67152344 4.45789063 3.47976562 4.8125 4.3125 C5.14894531 5.11300781 5.48539062 5.91351563 5.83203125 6.73828125 C7.83029515 10.60782907 9.34111792 11.77645072 13.5 13.1875 C16.8882035 14.11306485 16.8882035 14.11306485 20 14 C20 14.66 20 15.32 20 16 C12.74 16 5.48 16 -2 16 C-1.125 2.25 -1.125 2.25 0 0 Z " fill="#EEEEEE" transform="translate(62,80)"/>
<path d="M0 0 C6.6 0 13.2 0 20 0 C19.34 4.95 18.68 9.9 18 15 C16.68 15 15.36 15 14 15 C13.81824219 14.45730469 13.63648437 13.91460937 13.44921875 13.35546875 C13.19785156 12.64003906 12.94648437 11.92460938 12.6875 11.1875 C12.32205078 10.12595703 12.32205078 10.12595703 11.94921875 9.04296875 C10.53692635 6.00334353 8.99665647 4.46307365 5.95703125 3.05078125 C5.24933594 2.80714844 4.54164062 2.56351563 3.8125 2.3125 C3.09707031 2.06113281 2.38164063 1.80976562 1.64453125 1.55078125 C1.10183594 1.36902344 0.55914062 1.18726563 0 1 C0 0.67 0 0.34 0 0 Z " fill="#E9EBEA" transform="translate(77,51)"/>
<path d="M0 0 C0.66 1.32 1.32 2.64 2 4 C3.65 3.34 5.3 2.68 7 2 C7.33 2.66 7.66 3.32 8 4 C9.64363134 4.72159424 11.31050386 5.39351421 13 6 C13 6.66 13 7.32 13 8 C5.74 8 -1.52 8 -9 8 C-8.67 7.01 -8.34 6.02 -8 5 C-6.00428677 4.32060826 -4.00405227 3.65438441 -2 3 C-1.34 2.01 -0.68 1.02 0 0 Z " fill="#EFEFEF" transform="translate(326,87)"/>
<path d="M0 0 C0.33 0.66 0.66 1.32 1 2 C4.68660697 3.22886899 8.10062975 3.14560987 11.9375 3.125 C13.01161133 3.13080078 13.01161133 3.13080078 14.10742188 3.13671875 C17.54178156 3.13035293 20.71864926 3.07950442 24 2 C24.495 3.485 24.495 3.485 25 5 C14.11 5 3.22 5 -8 5 C-8 4.34 -8 3.68 -8 3 C-5.36 2.01 -2.72 1.02 0 0 Z " fill="#FAFAFA" transform="translate(371,90)"/>
<path d="M0 0 C2.31 0.66 4.62 1.32 7 2 C7 2.66 7 3.32 7 4 C-3.89 4 -14.78 4 -26 4 C-23 1 -23 1 -20.3125 0.8125 C-19.549375 0.874375 -18.78625 0.93625 -18 1 C-18 1.66 -18 2.32 -18 3 C-9.585 2.505 -9.585 2.505 -1 2 C-0.67 1.34 -0.34 0.68 0 0 Z " fill="#F9F9F9" transform="translate(45,91)"/>
<path d="M0 0 C0.33 0.33 0.66 0.66 1 1 C3.44904669 1.10044341 5.86374897 1.13874416 8.3125 1.125 C9.32860352 1.13080078 9.32860352 1.13080078 10.36523438 1.13671875 C13.75534763 1.13009096 16.73251008 0.85373846 20 0 C20.66 0.33 21.32 0.66 22 1 C22 1.66 22 2.32 22 3 C11.11 3 0.22 3 -11 3 C-11 2.34 -11 1.68 -11 1 C-7.11651516 -0.29449495 -4.09302664 -0.13203312 0 0 Z " fill="#F9F9F9" transform="translate(115,92)"/>
<path d="M0 0 C-2.00844092 4.92980953 -5.64105074 8.09403383 -10 11 C-12.04296875 11.1953125 -12.04296875 11.1953125 -14.1875 11.125 C-16.0746875 11.063125 -16.0746875 11.063125 -18 11 C-15.78877592 9.85343936 -13.670069 8.88490779 -11.3125 8.0625 C-10.549375 7.711875 -9.78625 7.36125 -9 7 C-8.67 6.01 -8.34 5.02 -8 4 C-5.14284486 0.55170931 -4.68001448 0 0 0 Z " fill="#EAEAEA" transform="translate(318,85)"/>
<path d="M0 0 C2.875 -0.125 2.875 -0.125 6 0 C6.66 0.66 7.32 1.32 8 2 C10.57061311 2.64767793 10.57061311 2.64767793 13 3 C12.7323244 6.30133235 12.4396165 7.62503298 9.875 9.8125 C6.41554399 11.24140574 3.70840602 11.21814153 0 11 C3.08809695 9.23537317 4.23312136 9 8 9 C7.45160938 6.01779872 7.45160938 6.01779872 6 3 C2.98220128 1.54839062 2.98220128 1.54839062 0 1 C0 0.67 0 0.34 0 0 Z " fill="#EEEEEE" transform="translate(226,104)"/>
<path d="M0 0 C-1.98 0.99 -1.98 0.99 -4 2 C-4 2.66 -4 3.32 -4 4 C-4.556875 3.79375 -5.11375 3.5875 -5.6875 3.375 C-8.659538 2.89304789 -10.31979941 3.73434972 -13 5 C-13.33 4.34 -13.66 3.68 -14 3 C-17.96 4.98 -17.96 4.98 -22 7 C-21 4 -21 4 -17.75 1.8125 C-12.08371542 -0.906903 -6.13722208 -0.33679877 0 0 Z " fill="#F4F4F4" transform="translate(442,51)"/>
<path d="M0 0 C0.66 0.33 1.32 0.66 2 1 C-3.61031954 4.8648868 -6.88828406 6.12981897 -13.6875 6.0625 C-15.45673828 6.04896484 -15.45673828 6.04896484 -17.26171875 6.03515625 C-18.16535156 6.02355469 -19.06898438 6.01195313 -20 6 C-20 5.01 -20 4.02 -20 3 C-18.7315625 3.309375 -18.7315625 3.309375 -17.4375 3.625 C-13.41936057 4.06334248 -10.81743861 3.24934355 -7 2 C-6.071875 1.814375 -5.14375 1.62875 -4.1875 1.4375 C-1.96711032 1.09318741 -1.96711032 1.09318741 0 0 Z " fill="#F4F4F4" transform="translate(176,90)"/>
<path d="M0 0 C2.00720923 0.28674418 4.0085944 0.61866701 6 1 C3.94766315 3.2477975 2.99332739 4.0022242 0 5 C-1.72795352 5.06802967 -3.45835365 5.08495645 -5.1875 5.0625 C-6.53908203 5.04896484 -6.53908203 5.04896484 -7.91796875 5.03515625 C-8.60503906 5.02355469 -9.29210937 5.01195313 -10 5 C-9.67 3.68 -9.34 2.36 -9 1 C-7.700625 1.020625 -6.40125 1.04125 -5.0625 1.0625 C-3.70834367 1.08399454 -2.35243917 1.07148199 -1 1 C-0.67 0.67 -0.34 0.34 0 0 Z " fill="#F4F4F4" transform="translate(427,91)"/>
<path d="M0 0 C-0.99 1.485 -0.99 1.485 -2 3 C-2.56589844 2.80664062 -3.13179687 2.61328125 -3.71484375 2.4140625 C-6.48295732 1.91248979 -7.94078233 2.40793663 -10.5625 3.375 C-11.32691406 3.65085938 -12.09132812 3.92671875 -12.87890625 4.2109375 C-13.57886719 4.47132812 -14.27882812 4.73171875 -15 5 C-15.99 5.33 -16.98 5.66 -18 6 C-18.66 5.67 -19.32 5.34 -20 5 C-20 4.34 -20 3.68 -20 3 C-13.19925959 1.09579269 -7.08076251 -0.40850553 0 0 Z " fill="#F7F7F7" transform="translate(219,51)"/>
<path d="M0 0 C6.6 0 13.2 0 20 0 C10.71593533 4.64203233 10.71593533 4.64203233 5.703125 3.45703125 C3.76665883 2.72570626 1.87747296 1.87168387 0 1 C0 0.67 0 0.34 0 0 Z " fill="#F6F6F6" transform="translate(77,51)"/>
<path d="M0 0 C0.91007812 0.00902344 1.82015625 0.01804688 2.7578125 0.02734375 C3.45648438 0.03894531 4.15515625 0.05054688 4.875 0.0625 C5.205 1.3825 5.535 2.7025 5.875 4.0625 C4.885 4.3925 3.895 4.7225 2.875 5.0625 C2.215 4.4025 1.555 3.7425 0.875 3.0625 C-1.81339385 2.79258094 -4.41641936 2.97512643 -7.125 3.0625 C-7.125 2.4025 -7.125 1.7425 -7.125 1.0625 C-4.60024538 -0.19987731 -2.81299534 -0.03606404 0 0 Z " fill="#F0F0F0" transform="translate(299.125,50.9375)"/>
<path d="M0 0 C-0.7734375 0.37125 -0.7734375 0.37125 -1.5625 0.75 C-3.9063743 1.90229179 -3.9063743 1.90229179 -5.6484375 3.05859375 C-10.3919194 6.05175154 -10.3919194 6.05175154 -13.9375 5.75 C-14.618125 5.5025 -15.29875 5.255 -16 5 C-15 3 -15 3 -12.890625 2.1484375 C-12.01921875 1.89320312 -11.1478125 1.63796875 -10.25 1.375 C-8.95835937 0.98441406 -8.95835937 0.98441406 -7.640625 0.5859375 C-5.00270994 0.00060132 -2.69198424 -0.10651736 0 0 Z " fill="#F3F3F3" transform="translate(249,51)"/>
<path d="M0 0 C7.26 0 14.52 0 22 0 C22 0.66 22 1.32 22 2 C20.35 2.33 18.7 2.66 17 3 C17 2.67 17 2.34 17 2 C11.39 1.67 5.78 1.34 0 1 C0 0.67 0 0.34 0 0 Z " fill="#F8F8F8" transform="translate(391,32)"/>
<path d="M0 0 C1.09054688 0.02320313 2.18109375 0.04640625 3.3046875 0.0703125 C4.40039062 0.08835938 5.49609375 0.10640625 6.625 0.125 C7.46804687 0.14820313 8.31109375 0.17140625 9.1796875 0.1953125 C9.5096875 0.8553125 9.8396875 1.5153125 10.1796875 2.1953125 C4.94497064 2.95143827 0.40714609 3.4016491 -4.8203125 2.1953125 C-2.8203125 0.1953125 -2.8203125 0.1953125 0 0 Z " fill="#F6F6F6" transform="translate(173.8203125,50.8046875)"/>
<path d="M0 0 C0.33 0 0.66 0 1 0 C2.66517133 6.36607809 3.42650927 10.79892075 1 17 C0.67 17 0.34 17 0 17 C0 11.39 0 5.78 0 0 Z " fill="#DBDBDB" transform="translate(241,88)"/>
<path d="M0 0 C1.32 0 2.64 0 4 0 C3.46930939 3.82097239 2.50298434 6.06171403 0 9 C-0.66 8.67 -1.32 8.34 -2 8 C-1.34 7.01 -0.68 6.02 0 5 C-0.33 4.01 -0.66 3.02 -1 2 C-0.67 1.34 -0.34 0.68 0 0 Z " fill="#ECECEC" transform="translate(362,73)"/>
<path d="M0 0 C0.89778361 2.69335083 1.56897081 5.1983103 2 8 C1.67 8.66 1.34 9.32 1 10 C-0.32 10 -1.64 10 -3 10 C-2.39009109 6.44219804 -1.4216319 3.3171411 0 0 Z " fill="#CBCBCB" transform="translate(214,65)"/>
<path d="M0 0 C0 0.66 0 1.32 0 2 C-3.09718886 2.99552499 -4.90271275 2.89921243 -8 2 C-8.99 2 -9.98 2 -11 2 C-7.374967 -1.625033 -4.81746234 -1.01907857 0 0 Z " fill="#ECECEC" transform="translate(81,52)"/>
<path d="M0 0 C1.32 0 2.64 0 4 0 C3.01 2.97 2.02 5.94 1 9 C0 6 0 6 0 4 C-0.66 3.67 -1.32 3.34 -2 3 C-1.34 2.01 -0.68 1.02 0 0 Z " fill="#D8D8D8" transform="translate(296,81)"/>
<path d="M0 0 C2.97 0.495 2.97 0.495 6 1 C3.53846154 4.81538462 3.53846154 4.81538462 0.8125 5.75 C0.214375 5.8325 -0.38375 5.915 -1 6 C-0.67 4.02 -0.34 2.04 0 0 Z " fill="#EDEDED" transform="translate(217,60)"/>
<path d="M0 0 C0 0.66 0 1.32 0 2 C-2.3125 3.6875 -2.3125 3.6875 -5 5 C-5.99 4.67 -6.98 4.34 -8 4 C-7.67 3.01 -7.34 2.02 -7 1 C-4 0 -4 0 0 0 Z " fill="#ECECEC" transform="translate(65,33)"/>
<path d="M0 0 C0.99 0 1.98 0 3 0 C2 3 2 3 -1 5 C-3.33199388 5.07905064 -5.66832622 5.08798769 -8 5 C-8 4.67 -8 4.34 -8 4 C-6.865625 3.71125 -5.73125 3.4225 -4.5625 3.125 C-3.386875 2.75375 -2.21125 2.3825 -1 2 C-0.67 1.34 -0.34 0.68 0 0 Z " fill="#F0F0F0" transform="translate(289,91)"/>
<path d="M0 0 C0.66 0.66 1.32 1.32 2 2 C-1.08888522 4.05925681 -1.70935927 4.2390374 -5.1875 4.125 C-7.0746875 4.063125 -7.0746875 4.063125 -9 4 C-6.06279492 2.47700477 -3.0831351 1.19899698 0 0 Z " fill="#F3F3F3" transform="translate(309,92)"/>
</svg>
